<?xml version="1.0" encoding="UTF-8"?>
<svg xmlns="http://www.w3.org/2000/svg" viewBox="0 0 128 128" width="128" height="128" aria-hidden="true">
  <defs>
    <linearGradient id="g1" x1="0" y1="0" x2="1" y2="1">
      <stop offset="0" stop-color="#9be28f"/>
      <stop offset="1" stop-color="#4bbf6b"/>
    </linearGradient>
  </defs>
  <!-- Tail -->
  <path d="M86 96 L118 122 L96 92 Z" fill="#3aa0e5" opacity="0.9"/>
  <!-- Body -->
  <ellipse cx="64" cy="78" rx="40" ry="32" fill="url(#g1)"/>
  <!-- Wing -->
  <path d="M36 86c8-12 22-20 40-18 8 1 14 5 18 10-2 10-12 18-26 20-16 3-28-3-32-12z" fill="#2f9658" opacity="0.9"/>
  <!-- Head -->
  <circle cx="78" cy="52" r="18" fill="#a6f2a0"/>
  <!-- Beak -->
  <path d="M94 56c6 2 10 6 10 8s-6 2-12 0" fill="#ffaa4d"/>
  <!-- Eye -->
  <circle cx="83.5" cy="49.5" r="3.2" fill="#0e0e0e"/>
  <circle cx="82.8" cy="48.8" r="1.2" fill="#ffffff"/>
  <!-- Feet -->
  <path d="M56 106 l-6 6" stroke="#caa66a" stroke-width="3" stroke-linecap="round"/>
  <path d="M64 106 l-6 6" stroke="#caa66a" stroke-width="3" stroke-linecap="round"/>
</svg>

